HIERARCHY
ROOT Hips
{
	OFFSET 0.000000 8.830580 0.000000
	CHANNELS 6 Xposition Yposition Zposition Zrotation Yrotation Xrotation 
	JOINT Spine
	{
		OFFSET 0.000000 0.010000 0.000000
		CHANNELS 3 Zrotation Yrotation Xrotation
		JOINT Spine1
		{
			OFFSET 0.000000 2.459130 0.000000
			CHANNELS 3 Zrotation Yrotation Xrotation
			JOINT Neck
			{
				OFFSET 0.000000 2.484630 0.000000
				CHANNELS 3 Zrotation Yrotation Xrotation
				JOINT Head_virtual
				{
					OFFSET 0.000000 0.000000 0.000000
					CHANNELS 3 Zrotation Yrotation Xrotation
					JOINT Head
					{
						OFFSET 0.000000 0.927525 0.000000
						CHANNELS 3 Zrotation Yrotation Xrotation
						End Site
						{
							OFFSET 0.000000 0.000000 0.000000
						}
					}
				}
				JOINT LeftUpArm_virtual
				{
					OFFSET 0.000000 0.000000 0.000000
					CHANNELS 3 Zrotation Yrotation Xrotation
					JOINT LeftUpArm
					{
						OFFSET 1.248820 0.000000 0.000000
						CHANNELS 3 Zrotation Yrotation Xrotation
						JOINT LeftForeArm
						{
							OFFSET 2.597580 0.000000 0.000000
							CHANNELS 3 Zrotation Yrotation Xrotation
							JOINT LeftHand
							{
								OFFSET 2.455420 0.000000 0.000000
								CHANNELS 3 Zrotation Yrotation Xrotation
								End Site
								{
									OFFSET 0.000000 0.000000 0.000000
								}
							}
						}
					}
				}
				JOINT RightUpArm_virtual
				{
					OFFSET -0.000000 -0.000000 -0.000000
					CHANNELS 3 Zrotation Yrotation Xrotation
					JOINT RightUpArm
					{
						OFFSET -1.248820 -0.000000 -0.000000
						CHANNELS 3 Zrotation Yrotation Xrotation
						JOINT RightForeArm
						{
							OFFSET -2.597580 -0.000000 -0.000000
							CHANNELS 3 Zrotation Yrotation Xrotation
							JOINT RightHand
							{
								OFFSET -2.455420 -0.000000 -0.000000
								CHANNELS 3 Zrotation Yrotation Xrotation
								End Site
								{
									OFFSET 0.000000 0.000000 0.000000
								}
							}
						}
					}
				}
			}
		}
	}
	JOINT LeftUpLeg
	{
		OFFSET 1.271939 0.000000 0.000000
		CHANNELS 3 Zrotation Yrotation Xrotation
		JOINT LeftLowLeg
		{
			OFFSET 0.000000 -4.342910 0.000000
			CHANNELS 3 Zrotation Yrotation Xrotation
			JOINT LeftFoot
			{
				OFFSET 0.000000 -4.487670 0.000000
				CHANNELS 3 Zrotation Yrotation Xrotation
				JOINT LeftToeBase
				{
					OFFSET 0.000000 0.000000 1.515070
					CHANNELS 3 Zrotation Yrotation Xrotation
					End Site
					{
						OFFSET 0.000000 0.000000 0.000000
					}
				}
			}
		}
	}
	JOINT RightUpLeg
	{
		OFFSET -1.271939 0.000000 0.000000
		CHANNELS 3 Zrotation Yrotation Xrotation
		JOINT RightLowLeg
		{
			OFFSET 0.000000 -4.342910 0.000000
			CHANNELS 3 Zrotation Yrotation Xrotation
			JOINT RightFoot
			{
				OFFSET 0.000000 -4.487670 0.000000
				CHANNELS 3 Zrotation Yrotation Xrotation
				JOINT RightToeBase
				{
					OFFSET 0.000000 0.000000 1.515070
					CHANNELS 3 Zrotation Yrotation Xrotation
					End Site
					{
						OFFSET 0.000000 0.000000 0.000000
					}
				}
			}
		}
	}
}
MOTION
Frames: 16
Frame Time: 0.041667
-31.559775 9.264713 40.461249 -5.431239 14.636881 2.194691 0.083678 -1.138586 -5.837857 -1.054346 2.537746 13.659356 0.000000 0.000000 0.000000 41.222521 -5.366129 -0.929027 16.196680 20.466947 -42.840495 -10.808400 2.549010 4.860780 -52.602901 -12.488200 21.796600 0.000000 -24.283300 0.000000 21.296200 12.518300 -3.423150 6.889820 -5.624630 2.588410 48.550400 7.244760 30.812000 180.000000 74.112999 180.000000 -17.272800 -3.100290 -27.048901 9.181675 -6.386831 -18.091333 0.000000 0.000000 49.708401 14.795492 -5.280928 8.489730 0.000000 0.000000 -51.137199 7.072505 -1.210003 -7.260478 0.000000 0.000000 10.218000 8.536010 0.154225 14.009445 0.000000 0.000000 -28.606500 
-31.590415 9.272207 40.498482 -5.218690 15.871250 2.232298 -0.137220 -0.932246 -5.829844 -1.118358 2.774518 13.661625 0.000000 0.000000 0.000000 41.182880 -5.239414 -0.686523 16.143051 20.408974 -42.910296 -10.893800 2.995370 4.994650 -52.717999 -12.917800 21.867001 0.000000 -24.745701 0.000000 21.316700 12.288900 -3.228590 6.577590 -5.264340 2.383730 48.803001 6.882750 28.334200 -180.000000 70.333000 -180.000000 -12.398800 -3.765540 -34.859402 8.836539 -4.389834 -18.355361 0.000000 0.000000 49.270302 14.752684 -1.654442 8.038493 0.000000 0.000000 -48.523300 7.124804 -1.683507 -6.616929 0.000000 0.000000 9.446490 8.468112 -0.552239 13.836876 0.000000 0.000000 -28.449800 
-31.616723 9.278434 40.533089 -5.011565 17.352588 2.347907 -0.353365 -0.892963 -5.835911 -1.106612 2.846101 13.544425 0.000000 0.000000 0.000000 40.748366 -4.917799 -0.343412 16.327489 20.092296 -43.186070 -11.170900 2.974380 4.768400 -52.652100 -12.352300 21.790800 0.000000 -25.736500 0.000000 21.445400 12.175800 -3.296730 6.812850 -5.036620 2.216880 47.934299 7.463740 26.107500 -180.000000 66.917999 -180.000000 -8.959240 -3.455380 -41.518299 8.579608 -2.708155 -18.614250 0.000000 0.000000 48.060101 15.898961 1.228570 7.986778 0.000000 0.000000 -47.455502 7.170464 -2.401663 -6.115042 0.000000 0.000000 8.795180 8.408408 -1.227297 13.597929 0.000000 0.000000 -28.319100 
-31.638974 9.283158 40.567201 -4.813282 19.002733 2.524423 -0.508827 -0.901654 -5.969082 -1.226003 2.858853 13.574016 0.000000 0.000000 0.000000 40.370396 -4.664149 -0.178046 16.626725 19.865252 -43.385088 -11.328700 3.065380 4.761900 -52.641602 -12.211300 21.714100 0.000000 -26.427099 0.000000 21.348101 11.307200 -3.652960 6.779630 -4.759530 2.017490 47.723801 7.711570 23.744200 -180.000000 63.932999 -180.000000 -3.919250 -0.866645 -51.868000 8.425070 -1.404079 -18.839169 0.000000 0.000000 46.337898 15.830682 2.650179 7.852792 0.000000 0.000000 -46.187901 7.227072 -3.316004 -5.692462 0.000000 0.000000 8.193670 8.325573 -1.875111 13.315001 0.000000 0.000000 -28.154600 
-31.657495 9.285428 40.596827 -4.664952 20.852967 2.749307 -0.596754 -0.954977 -6.110972 -1.360461 2.816091 13.575207 0.000000 0.000000 0.000000 40.060431 -4.532801 -0.152777 16.966931 19.653262 -43.565505 -11.559500 3.073530 4.858560 -52.508701 -12.223500 21.754101 0.000000 -27.271999 0.000000 21.195299 11.307500 -3.997600 6.811260 -4.533270 1.715100 47.451199 8.074940 21.558399 180.000000 61.205002 180.000000 -0.594161 2.672680 -58.494999 8.371449 -0.430315 -19.171462 0.000000 0.000000 44.353199 15.178367 3.063657 7.981872 0.000000 0.000000 -45.478201 7.329260 -4.486253 -5.439095 0.000000 0.000000 7.765140 7.905190 -2.524971 13.085169 0.000000 0.000000 -28.342300 
-31.672081 9.284909 40.624690 -4.578390 22.788382 2.964227 -0.618777 -0.965889 -6.167750 -1.541040 2.800642 13.393194 0.000000 0.000000 0.000000 39.987621 -4.584223 -0.195041 17.093724 19.537448 -43.683561 -11.686500 3.034360 5.082540 -52.483299 -12.329900 21.882500 0.000000 -27.950899 0.000000 21.093100 10.968500 -4.449920 6.964320 -4.433510 1.561190 47.076500 8.605480 19.390100 -180.000000 58.591003 -180.000000 1.849370 6.065430 -63.652100 8.390521 0.422569 -19.510953 0.000000 0.000000 42.193001 15.352993 2.754373 8.347573 0.000000 0.000000 -45.517900 7.475110 -5.692286 -5.258965 0.000000 0.000000 7.424440 8.166855 -3.076061 12.603337 0.000000 0.000000 -28.117300 
-31.682405 9.283802 40.651378 -4.557127 24.754487 3.077552 -0.574829 -0.933872 -6.342216 -1.736566 2.822274 13.571075 0.000000 0.000000 0.000000 39.957188 -4.692594 -0.506047 17.204994 19.588968 -43.600866 -11.682900 2.831800 4.804100 -52.686100 -12.153100 22.102600 0.000000 -28.639799 0.000000 20.967199 10.926900 -4.266340 6.407050 -4.358050 1.819410 47.992802 8.790410 17.277599 -180.000000 56.236000 -180.000000 2.901740 9.102500 -66.258698 8.457920 1.251101 -19.716494 0.000000 0.000000 39.876801 15.951941 2.203293 8.493406 0.000000 0.000000 -46.239700 7.638049 -6.692510 -5.017557 0.000000 0.000000 7.165260 7.745444 -3.882303 12.369884 0.000000 0.000000 -28.517400 
-31.688945 9.282278 40.671079 -4.532946 26.899708 3.275015 -0.534855 -0.948363 -6.394890 -1.886383 2.792793 13.385493 0.000000 0.000000 0.000000 39.578652 -4.592075 -0.786228 17.753091 19.390085 -43.480230 -11.744400 2.718180 4.918240 -52.879200 -12.389500 22.283701 0.000000 -29.038000 0.000000 20.906300 10.893600 -3.973840 6.762240 -4.407190 1.851070 47.299801 9.619410 15.290500 180.000000 54.038002 180.000000 4.113060 11.629800 -68.798401 8.479771 1.904231 -20.095276 0.000000 0.000000 37.554401 15.175668 1.341358 8.212296 0.000000 0.000000 -45.926399 7.778583 -7.796474 -4.861869 0.000000 0.000000 6.829080 7.941330 -4.646327 11.926286 0.000000 0.000000 -28.360700 
-31.690794 9.282466 40.690197 -4.463370 29.009364 3.277195 -0.531084 -0.860652 -6.274420 -2.038275 2.871756 13.266664 0.000000 0.000000 0.000000 39.510038 -4.657776 -0.851396 17.923086 19.310499 -43.673340 -11.871000 2.611700 5.023240 -53.031601 -12.719300 22.314899 0.000000 -29.404900 0.000000 20.561199 10.521300 -3.583980 6.838270 -4.594570 1.708390 47.436298 9.830240 13.723700 -180.000000 52.154999 -180.000000 5.054420 13.897600 -70.950104 8.332309 2.823463 -20.187171 0.000000 0.000000 35.084301 15.305814 1.062166 8.319510 0.000000 0.000000 -46.166401 7.828742 -8.849957 -4.478455 0.000000 0.000000 6.472100 7.993792 -5.471918 11.514353 0.000000 0.000000 -28.230000 
-31.690196 9.282589 40.710760 -4.384375 31.024193 3.290330 -0.666830 -0.731441 -6.219319 -2.010009 3.022904 13.251774 0.000000 0.000000 0.000000 39.552799 -4.812478 -0.982476 17.877774 19.322757 -43.819057 -12.015600 2.527070 4.987810 -53.235401 -12.944700 22.398199 0.000000 -29.781300 0.000000 20.337400 10.394200 -3.387510 6.874970 -4.853910 1.556520 47.690899 10.032300 12.383300 180.000000 50.445007 180.000000 5.753580 15.407900 -72.429901 8.084364 4.211573 -20.204931 0.000000 0.000000 32.594002 14.982320 0.879829 8.266371 0.000000 0.000000 -45.738199 7.887602 -9.946334 -4.138833 0.000000 0.000000 6.207390 8.039004 -6.262850 11.102354 0.000000 0.000000 -28.139400 
-31.684433 9.283518 40.731915 -4.333023 33.047654 3.215213 -0.769529 -0.723589 -6.138972 -2.051786 3.046486 13.252269 0.000000 0.000000 0.000000 39.349739 -4.668446 -0.876426 17.904811 19.271647 -43.999851 -12.236800 2.601180 4.737210 -53.257900 -12.749600 22.623600 0.000000 -30.422300 0.000000 20.365101 10.228500 -3.036900 6.993210 -4.773350 1.559260 47.889599 10.232000 10.887300 180.000000 49.078995 180.000000 6.593820 16.912600 -72.303902 7.773219 5.743199 -20.118215 0.000000 0.000000 30.036800 14.749306 0.910155 8.302125 0.000000 0.000000 -45.373301 7.937748 -10.977339 -3.723932 0.000000 0.000000 5.965700 8.016918 -7.161175 10.731876 0.000000 0.000000 -27.977200 
-31.674997 9.283081 40.749457 -4.332957 34.948609 3.252190 -0.882887 -0.646859 -6.198237 -2.021234 3.142592 13.277231 0.000000 0.000000 0.000000 39.269129 -4.586988 -0.763467 17.755901 19.316377 -44.203929 -12.260200 2.480650 4.559050 -53.628601 -12.495800 22.573601 0.000000 -30.972401 0.000000 20.565300 10.217700 -2.538650 7.157340 -4.600160 1.488470 47.924599 10.295900 9.584060 -180.000000 47.679001 -180.000000 6.719630 16.981701 -70.752197 7.440094 7.287169 -20.165967 0.000000 0.000000 27.594299 14.483966 1.254185 8.251451 0.000000 0.000000 -44.361900 8.020750 -11.618525 -3.454659 0.000000 0.000000 5.709190 8.262918 -8.257446 10.245618 0.000000 0.000000 -27.612100 
-31.658942 9.281623 40.764697 -4.288136 36.756913 3.324145 -1.011153 -0.567960 -6.280530 -1.967548 3.244451 13.318940 0.000000 0.000000 0.000000 38.566589 -4.097062 -0.868759 18.459960 19.164698 -44.159819 -12.471400 2.296560 4.563960 -53.523201 -12.004900 22.334499 0.000000 -31.978901 0.000000 20.249201 10.210500 -4.378840 7.195980 -4.441510 1.701670 48.053001 10.655200 8.506420 180.000000 46.576996 180.000000 6.372760 16.935600 -70.006699 7.020427 8.728968 -20.225415 0.000000 0.000000 25.222500 14.750200 1.648333 8.377242 0.000000 0.000000 -44.236500 8.029691 -12.277005 -3.148432 0.000000 0.000000 5.387480 8.572628 -9.225667 9.759413 0.000000 0.000000 -27.410900 
-31.638401 9.278480 40.778784 -4.312614 38.471906 3.320371 -1.103242 -0.472073 -6.339756 -1.938379 3.358061 13.428889 0.000000 0.000000 0.000000 38.447522 -3.986046 -0.893531 18.411061 19.246937 -44.178865 -12.494800 2.747700 4.641990 -53.795300 -12.492600 22.554199 0.000000 -31.993200 0.000000 20.204201 9.988480 -4.452030 7.292500 -4.355170 1.609600 48.085201 10.963500 8.021390 180.000000 45.722000 -180.000000 5.714420 17.180099 -70.420197 6.539133 10.281971 -20.299576 0.000000 0.000000 23.043200 14.609067 2.142107 8.513203 0.000000 0.000000 -43.874701 8.060709 -12.867317 -2.734867 0.000000 0.000000 4.956400 8.766680 -10.220957 9.352752 0.000000 0.000000 -27.238900 
-31.612795 9.274841 40.786474 -4.368181 40.173928 3.438498 -1.121820 -0.427128 -6.442430 -1.933116 3.404865 13.389674 0.000000 0.000000 0.000000 38.124701 -3.740648 -0.739003 18.509182 19.144643 -44.365754 -12.690200 3.008190 4.588260 -53.714901 -12.468500 22.959000 0.000000 -32.191101 0.000000 20.028500 9.694240 -3.822690 7.275840 -4.122560 1.540890 48.178902 11.117000 7.930270 -180.000000 44.884995 -180.000000 4.822190 16.986799 -71.628502 5.982614 11.684017 -20.681002 0.000000 0.000000 21.259300 14.867164 2.724163 8.863857 0.000000 0.000000 -43.509500 8.108451 -13.777410 -2.496554 0.000000 0.000000 4.556470 8.947334 -10.873667 9.032993 0.000000 0.000000 -27.162900 
-31.583692 9.269004 40.785209 -4.490373 41.724964 3.602002 -1.008483 -0.311500 -6.492157 -2.040467 3.492392 13.218091 0.000000 0.000000 0.000000 37.894258 -3.581345 -0.671753 18.646058 19.019287 -44.392090 -12.977400 3.326690 4.696410 -53.369099 -12.519400 23.368000 0.000000 -32.492599 0.000000 19.524200 9.538220 -4.229890 7.369720 -4.003230 1.439460 48.030701 11.513500 7.873310 -180.000000 44.123993 -180.000000 4.392130 16.428200 -72.526497 5.312630 13.222896 -21.252946 0.000000 0.000000 19.799000 15.163020 3.318764 9.092458 0.000000 0.000000 -43.162500 8.171813 -14.648287 -2.496153 0.000000 0.000000 4.391210 9.246479 -11.340593 8.638789 0.000000 0.000000 -27.076500 
